<?xml version="1.0" encoding="UTF-8"?>
<svg width="101px" height="103px" viewBox="0 0 101 103" version="1.1" xmlns="http://www.w3.org/2000/svg" xmlns:xlink="http://www.w3.org/1999/xlink">
    <!-- Generator: Sketch 51.2 (57519) - http://www.bohemiancoding.com/sketch -->
    <title>Artboard 2</title>
    <desc>Created with Sketch.</desc>
    <defs></defs>
    <g id="Artboard-2" stroke="none" stroke-width="1" fill="none" fill-rule="evenodd">
        <g id="Group-5" transform="translate(1.000000, 1.000000)" fill="#7CFFD6" fill-rule="nonzero">
            <g id="Group" transform="translate(6.000000, 6.000000)">
                <path d="M21.8575719,0.0133078692 C21.5057414,0.0515754809 21.1770537,0.208207841 20.9247423,0.457837163 L0.500684403,19.4244204 C0.0883046292,19.8125924 -0.0868544853,20.3926342 0.0412087592,20.9459802 C0.169272004,21.4993262 0.581094381,21.9418782 1.12149711,22.1068781 C1.66189985,22.2718781 2.2487518,22.1342491 2.66092129,21.7458511 L23.0849792,2.77926792 C23.6115524,2.32370692 23.7783696,1.57439968 23.4952543,0.936399875 C23.212139,0.29840007 22.5462599,-0.0769276823 21.8575719,0.0133078692 Z M65.8969467,0.0133078692 C65.254011,0.0365853097 64.6901375,0.451820327 64.4737548,1.06134272 C64.2573721,1.67086511 64.4322033,2.35151299 64.9150208,2.77926792 L85.3390787,21.7458511 C85.7512482,22.1342491 86.3381002,22.2718781 86.8785029,22.1068781 C87.4189056,21.9418782 87.830728,21.4993262 87.9587912,20.9459802 C88.0868545,20.3926342 87.9116954,19.8125924 87.4993156,19.4244204 L67.0752577,0.457837163 C66.7611989,0.150984725 66.3341238,-0.0101334941 65.8969467,0.0133078692 Z M44,9.54599161 C23.1941693,9.54599161 6.29404698,26.548111 6.29404698,47.4791896 C6.29404698,61.4781086 13.8661565,73.7025456 25.0979272,80.2755731 L17.5370981,92.4755116 C17.1844665,92.9521511 17.1273078,93.5874696 17.3891403,94.1200598 C17.6509728,94.6526501 18.1875644,94.99254 18.7781299,94.9998788 C19.3686954,95.0072177 19.9134685,94.6807658 20.1882979,94.1548445 L27.8964159,81.7573374 C32.7811121,84.0851694 38.241374,85.412356 44,85.412356 C49.758626,85.412356 55.2188879,84.0851694 60.1035841,81.7573374 L67.8117021,94.1548445 C68.0865315,94.6807658 68.6313046,95.0072177 69.2218701,94.9998788 C69.8124356,94.99254 70.3490272,94.6526501 70.6108597,94.1200598 C70.8726922,93.5874696 70.8155335,92.9521511 70.4629019,92.4755116 L62.9020728,80.2755731 C74.1338435,73.7025456 81.705953,61.4781086 81.705953,47.4791896 C81.705953,26.548111 64.8058307,9.54599161 44,9.54599161 Z M44,12.7070888 C63.1076488,12.7070888 78.5637903,28.2563679 78.5637903,47.4791896 C78.5637903,66.7015056 63.1076488,82.2512588 44,82.2512588 C24.8923512,82.2512588 9.43620973,66.7015056 9.43620973,47.4791896 C9.43620973,28.2563679 24.8923512,12.7070888 44,12.7070888 Z M44,25.3514776 C43.1322918,25.3514776 42.4289186,26.0590892 42.4289186,26.9320262 L42.4289186,47.4791896 C42.4289186,48.3521266 43.1322918,49.0597382 44,49.0597382 L61.2818951,49.0597382 C62.1496034,49.0597382 62.8529765,48.3521266 62.8529765,47.4791896 C62.8529765,46.6062526 62.1496034,45.898641 61.2818951,45.898641 L45.5710814,45.898641 L45.5710814,26.9320262 C45.5710814,26.0590892 44.8677082,25.3514776 44,25.3514776 Z" id="Shape"></path>
            </g>
            <path d="M21.8575719,0.0133078692 C21.5057414,0.0515754809 21.1770537,0.208207841 20.9247423,0.457837163 L0.500684403,19.4244204 C0.0883046292,19.8125924 -0.0868544853,20.3926342 0.0412087592,20.9459802 C0.169272004,21.4993262 0.581094381,21.9418782 1.12149711,22.1068781 C1.66189985,22.2718781 2.2487518,22.1342491 2.66092129,21.7458511 C9.17035043,15.7009393 14.0524223,11.1672554 17.3071368,8.14479949 C18.5911018,6.95245914 20.5170493,5.16394862 23.0849792,2.77926792 C23.6115524,2.32370692 23.7783696,1.57439968 23.4952543,0.936399875 C23.212139,0.29840007 22.5462599,-0.0769276823 21.8575719,0.0133078692 Z" id="Path" fill-opacity="0.3"></path>
            <path d="M77.5147967,0.00224305367 C76.871861,0.0255204942 76.3079875,0.440755512 76.0916048,1.0502779 C75.8752222,1.65980029 76.0500533,2.34044818 76.5328709,2.7682031 L96.9569288,21.7347863 C97.3690983,22.1231843 97.9559502,22.2608133 98.4963529,22.0958133 C99.0367557,21.9308134 99.448578,21.4882614 99.5766413,20.9349154 C99.7047045,20.3815693 99.5295454,19.8015276 99.1171656,19.4133555 L78.6931078,0.446772347 C78.3790489,0.139919909 77.9519738,-0.0211983096 77.5147967,0.00224305367 Z" id="Path" fill-opacity="0.3"></path>
        </g>
    </g>
</svg>